<?xml version="1.0" encoding="utf-8"?>
<!-- Generator: Adobe Illustrator 22.1.0, SVG Export Plug-In . SVG Version: 6.00 Build 0)  -->
<svg version="1.1" id="Layer_1" xmlns="http://www.w3.org/2000/svg" xmlns:xlink="http://www.w3.org/1999/xlink" x="0px" y="0px"
	 viewBox="0 0 164.2 108.7" style="enable-background:new 0 0 164.2 108.7;" xml:space="preserve">
<style type="text/css">
	.st0{fill:#ED1C24;}
	.st1{fill:#FFFFFF;}
	.st2{enable-background:new    ;}
</style>
<polyline class="st0" points="163.5,0 163.5,88.2 0,88.2 0,0 "/>
<polygon class="st1" points="87.5,12.4 95.9,12.4 95.9,10.5 68.3,10.5 68.3,12.4 76.7,12.4 76.7,75.5 68.3,75.5 68.3,77.4 
	95.9,77.4 95.9,75.5 87.5,75.5 "/>
<path class="st1" d="M62.9,29.8h-2.1c0,0-2.2-18.9-20.2-18.9c-16.7,0-17.8,15.7-17.8,28.5c0,20.4,2.1,37.1,18.8,37.1
	c17.9,0,20.9-18.8,20.9-18.8h1.9v19.5h-1.3l-3.9-4c0,0-7.4,5.4-17.7,5.4c-18,0-31.4-15.5-31.4-33.7c0-19.4,12.4-35.4,30-35.4
	c10.6,0,16.3,5.8,16.3,5.8l4.8-4.7h1.4L62.9,29.8L62.9,29.8z"/>
<path class="st1" d="M125,9.8c-17.6,0-28.7,19.3-28.7,34.4s11.1,34.5,28.7,34.5s28.7-19.4,28.7-34.5S142.5,9.8,125,9.8z M125,76.9
	c-17.3,0-16.3-16.8-16.3-32.7s-0.9-32.9,16.3-32.9s16.3,17.1,16.3,32.9S142.2,76.9,125,76.9z"/>
<g class="st2">
	<path class="st1" d="M73.5,95.2h8.8v1.2h-7.5v3.2H82v1.2h-7.2v4.4h-1.4V95.2z"/>
	<path class="st1" d="M84.3,95.2h6.8c0.9,0,1.9,0,2.8,0.8c0.3,0.3,0.9,0.9,0.9,2.1c0,2.4-2,2.7-2.7,2.8l3.7,4.2h-1.8l-3.4-4h-4.8v4
		h-1.4V95.2z M85.7,96.4v3.6h4.9c0.8,0,1.8,0,2.3-0.8c0.3-0.3,0.3-0.7,0.3-1.1c0-0.4-0.1-0.8-0.3-1.1c-0.5-0.7-1.2-0.7-1.8-0.7H85.7
		z"/>
	<path class="st1" d="M108.9,100.3c0,3.4-2.8,5.1-6,5.1c-1.5,0-2.9-0.3-4.1-1.1c-1-0.7-2-1.9-2-4c0-3.7,3-5.3,6-5.3
		C106.3,95,108.9,97,108.9,100.3z M98.2,100.2c0,0.8,0.2,1.8,0.9,2.5c0.9,1.1,2.4,1.4,3.8,1.4c3.7,0,4.6-2.3,4.6-4
		c0-2.6-2.1-4.1-4.8-4C100.5,96.2,98.2,97.3,98.2,100.2z"/>
	<path class="st1" d="M111.1,95.2h1.9l3.1,6.5c0.5,1.1,0.6,1.3,1,2.2c0.3-0.9,0.5-1.2,0.9-2.2l3.1-6.5h1.9v10h-1.3v-5.7
		c0-1.9,0-2.2,0.1-3c-0.3,0.8-0.4,0.9-0.7,1.8l-3.4,7h-1.3l-3.1-6.5c-0.5-1.1-0.7-1.4-1-2.3c0.1,0.8,0.1,1,0.1,2.5v6.2h-1.3V95.2z"
		/>
	<path class="st1" d="M130.5,95.2h1.5v10h-1.5V95.2z"/>
	<path class="st1" d="M134.9,95.2h5c1.1,0,2.5,0,3.8,1.1c0.8,0.7,1.7,1.9,1.7,3.8c0,1.8-0.8,3-1.4,3.6c-1.4,1.4-3.3,1.4-5,1.4h-4
		V95.2z M136.4,96.4v7.6h2.9c1.3,0,2.8,0,3.9-1.4c0.6-0.7,0.8-1.7,0.8-2.5c0-1.3-0.5-2.2-1-2.8c-0.9-0.9-2.1-0.9-3-0.9H136.4z"/>
	<path class="st1" d="M157.1,103.8c-0.2,0.2-0.3,0.3-0.6,0.5c-0.7,0.6-2.1,1.1-3.8,1.1c-3.4,0-5.7-2.4-5.7-5.2
		c0-1.4,0.6-2.4,0.9-2.9c0.9-1.4,2.8-2.4,5.1-2.4c2.3,0,3.8,0.9,4.3,1.4c0.6,0.5,0.8,0.9,1,1.2l-1.4,0.4c-0.2-0.3-0.3-0.5-0.6-0.7
		c-0.8-0.7-2-1.1-3.1-1.1c-2.5,0-4.5,1.4-4.5,3.9c0,1,0.4,1.9,0.7,2.3c1.1,1.7,3.2,1.8,3.8,1.8c0.9,0,2.3-0.3,3.3-1.3
		c0.6-0.7,0.7-1.2,0.8-1.8h-4.4v-1.2h5.6v5.3h-1.2V103.8z"/>
</g>
</svg>
